<svg width="124" height="49" viewBox="0 0 124 49" fill="none" xmlns="http://www.w3.org/2000/svg">
<g id="icons-sedan">
<g id="bloco">
<g id="ellise" opacity="0.211" filter="url(#filter0_d_6_4)">
<path d="M24.0266 40.9994C35.087 40.9994 44.0532 32.0451 44.0532 20.9994C44.0532 9.95369 35.087 0.99939 24.0266 0.99939C12.9662 0.99939 4 9.95369 4 20.9994C4 32.0451 12.9662 40.9994 24.0266 40.9994Z" fill="black"/>
</g>
<g class="car">
<g id="wheels">
<ellipse id="Ellipse 1" cx="35.0412" cy="28.9994" rx="4.00532" ry="4" fill="#FFD473"/>
<path id="Ellipse 3" d="M61.0758 28.9994C61.0758 31.2085 59.2826 32.9994 57.0705 32.9994C54.8584 32.9994 53.0652 31.2085 53.0652 28.9994C53.0652 26.7903 54.8584 24.9994 57.0705 24.9994C59.2826 24.9994 61.0758 26.7903 61.0758 28.9994Z" fill="#FFD473"/>
</g>
<path id="Vector" d="M41.9775 20.2614V21.6904C41.9775 22.4064 42.5883 22.9834 43.3272 22.9494C43.6589 22.9315 43.971 22.7872 44.1992 22.5462C44.4274 22.3053 44.5544 21.9861 44.5539 21.6544V20.2614H52.8209L66.3218 21.5744C67.2791 21.6674 68 22.4554 68 23.3884C68 26.2784 65.8712 28.6914 63.0675 29.2074C63.465 25.6504 60.6062 22.5874 57.0064 22.5874C53.3556 22.5874 50.4938 25.7274 50.9594 29.3104H41.0672C41.5339 25.7224 38.6671 22.5884 35.0202 22.5884C31.4204 22.5884 28.5616 25.6504 28.9602 29.2084C26.8173 28.8104 25.039 27.2964 24.344 25.2774H25.4876C26.2195 25.2774 26.8093 24.6794 26.7743 23.9554C26.7412 23.2774 26.1444 22.7554 25.4505 22.7554H24.0266V22.5044C24.0266 21.2304 25.094 20.2614 26.3357 20.2614H41.9775ZM46.6467 11.9994C49.2952 11.9994 51.6433 13.5554 52.6266 15.9624L53.3536 17.7414H44.2234L42.4641 11.9994H46.6467ZM39.7725 11.9994L41.5329 17.7404H30.5403L33.9017 14.0864C34.5123 13.4272 35.253 12.9014 36.0771 12.5422C36.9012 12.183 37.7909 11.9982 38.6901 11.9994H39.7735H39.7725Z" fill="#FFD473"/>
</g>
</g>
</g>
<defs>
<filter id="filter0_d_6_4" x="0" y="0.99939" width="48.0532" height="48" filterUnits="userSpaceOnUse" color-interpolation-filters="sRGB">
<feFlood flood-opacity="0" result="BackgroundImageFix"/>
<feColorMatrix in="SourceAlpha" type="matrix" values="0 0 0 0 0 0 0 0 0 0 0 0 0 0 0 0 0 0 127 0" result="hardAlpha"/>
<feOffset dy="4"/>
<feGaussianBlur stdDeviation="2"/>
<feComposite in2="hardAlpha" operator="out"/>
<feColorMatrix type="matrix" values="0 0 0 0 0 0 0 0 0 0 0 0 0 0 0 0 0 0 0.25 0"/>
<feBlend mode="normal" in2="BackgroundImageFix" result="effect1_dropShadow_6_4"/>
<feBlend mode="normal" in="SourceGraphic" in2="effect1_dropShadow_6_4" result="shape"/>
</filter>
</defs>
</svg>
