<svg width="120" height="41" viewBox="0 0 120 41" fill="none" xmlns="http://www.w3.org/2000/svg">
<g id="icons-suvs">
<g id="bloco">
<g id="icon-suvs">
<path id="Vector" opacity="0.201" d="M21.6452 41C33.0472 41 42.2903 32.0457 42.2903 21C42.2903 9.9543 33.0472 1 21.6452 1C10.2432 1 1 9.9543 1 21C1 32.0457 10.2432 41 21.6452 41Z" fill="black"/>
<g class="car">
<g id="vector">
<path id="Vector_2" d="M38.1273 19.2851V20.763C38.1271 20.9396 38.1635 21.1145 38.2344 21.2769C38.3053 21.4393 38.4092 21.586 38.5398 21.7079C38.6703 21.8299 38.8248 21.9246 38.9939 21.9863C39.163 22.048 39.3431 22.0755 39.5234 22.067C40.239 22.0336 40.7904 21.4291 40.7904 20.7266V19.2851H49.361L62.8428 20.0088C63.1162 20.0237 63.3782 20.1207 63.5933 20.2865C63.8084 20.4524 63.966 20.6791 64.0448 20.9358C64.3236 21.8405 64.5053 22.4289 64.6261 22.8261H63.545C62.8283 22.8261 62.2119 23.3659 62.1778 24.0675C62.1691 24.2438 62.1971 24.4199 62.26 24.5853C62.323 24.7507 62.4195 24.9018 62.5439 25.0296C62.6682 25.1574 62.8178 25.2591 62.9835 25.3287C63.1491 25.3982 63.3275 25.4341 63.5078 25.4342H64.9999C64.8306 27.6833 62.9671 29.6337 60.8709 30.5C60.3548 26 57.7741 23.5 54.1612 23.5C50.0322 23.5 48.4838 26 48.4838 30L36.6128 31C37.129 26.5 34.0322 23.2081 30.1411 23.5V19.2851H38.1273ZM27.479 19.2851L27.7186 24.0675C26.3569 24.7475 25.4793 25.7761 24.7419 27.0869C24.0044 28.3977 24.1169 29.5099 24.2578 31C23.2407 30.9403 21.3698 30.4958 20.6709 29.7699C19.972 29.044 19.5824 28.0844 19.5816 27.0869V25.4342H21.0892C21.4425 25.4342 21.7813 25.2968 22.0311 25.0522C22.2809 24.8077 22.4213 24.476 22.4213 24.1301C22.4213 23.7843 22.2809 23.4526 22.0311 23.2081C21.7813 22.9635 21.4425 22.8261 21.0892 22.8261H19.5806V19.5782L19.5837 19.2851H27.479ZM42.9537 11C45.6901 11 48.1167 12.6093 49.1328 15.0991L49.7834 16.6952C49.761 16.694 49.7386 16.6927 49.7163 16.6912L49.6894 16.6892L49.6543 16.6871L49.6316 16.6851C49.5546 16.6811 49.4774 16.679 49.4003 16.679L49.2991 16.678H49.2588L49.1184 16.677H49.0647L48.7281 16.676H40.4496L38.7117 11.001L42.9537 11ZM28.8772 11L27.7186 16.677H20.3416L21.8595 11.9158C21.9441 11.6505 22.113 11.4185 22.3416 11.2538C22.5703 11.089 22.8468 11.0001 23.1307 11H28.8772ZM35.9319 11L37.6698 16.676H30.4343L31.5919 11H35.9319Z" fill="#26B5C0"/>
</g>
<g id="wheels">
<path id="Ellipse 4" d="M35.0645 29.5C35.0645 31.9853 32.9848 34 30.4193 34C27.8539 34 25.7742 31.9853 25.7742 29.5C25.7742 27.0147 27.8539 25 30.4193 25C32.9848 25 35.0645 27.0147 35.0645 29.5Z" fill="#26B5C0"/>
<ellipse id="Ellipse 5" cx="54.1613" cy="29.5" rx="4.64516" ry="4.5" fill="#26B5C0"/>
</g>
</g>
</g>
</g>
</g>
</svg>
