<svg width="124" height="48" viewBox="0 0 124 48" fill="none" xmlns="http://www.w3.org/2000/svg">
<g id="icons-luxury">
<g id="bloco">
<g id="icon-luxury">
<g id="ellise" opacity="0.211" filter="url(#filter0_d_7_12)">
<path d="M22.775 40C33.1441 40 41.5499 31.0457 41.5499 20C41.5499 8.9543 33.1441 0 22.775 0C12.4058 0 4 8.9543 4 20C4 31.0457 12.4058 40 22.775 40Z" fill="black"/>
</g>
<g class="car">
<g id="wheels">
<ellipse id="Ellipse 1" cx="33.1011" cy="26" rx="3.75499" ry="4" fill="#19B89D"/>
<path id="Ellipse 3" d="M57.5086 26C57.5086 28.2091 55.8275 30 53.7536 30C51.6798 30 49.9987 28.2091 49.9987 26C49.9987 23.7909 51.6798 22 53.7536 22C55.8275 22 57.5086 23.7909 57.5086 26Z" fill="#19B89D"/>
</g>
<path id="Vector" d="M45.1106 12.3836C45.2217 12.2622 45.3544 12.1657 45.5011 12.0998C45.6477 12.0339 45.8052 12 45.9644 12C46.1235 12 46.2811 12.0339 46.4277 12.0998C46.5743 12.1657 46.7071 12.2622 46.8182 12.3836L50.3056 16.1676C54.4774 16.0526 59.4115 17.3096 63.4143 19.9206C63.7776 20.1576 64.0001 20.5846 64.0001 21.0446C64.0001 24.0506 62.0043 26.5586 59.3758 27.0946C59.7485 23.3966 57.0684 20.2126 53.6936 20.2126C50.2709 20.2126 47.5879 23.4766 48.0245 27.2026H38.9477C39.6612 25.6586 39.8799 25.1766 40.2028 24.4916L40.2798 24.3296C40.675 23.4946 41.2711 22.2596 42.9862 18.6796C44.5633 18.6566 46.2437 18.2716 47.9118 17.2766L45.1106 14.2366C44.8836 13.9886 44.7566 13.6559 44.7566 13.3096C44.7566 12.9632 44.8836 12.6306 45.1106 12.3826V12.3836ZM37.901 13.4476C38.5422 13.2476 39.2106 13.6496 39.3955 14.3456L40.0986 16.9976C40.3205 17.8355 40.2377 18.7318 39.8667 19.5076L38.2399 22.9026L38.0371 23.3266C37.0327 21.4366 35.1646 20.2126 33.0815 20.2126C29.7067 20.2126 27.0265 23.3966 27.4002 27.0976C25.6804 26.7506 24.1953 25.5606 23.3842 23.8216C23.2826 23.6035 23.2391 23.3599 23.2585 23.1172C23.2779 22.8746 23.3593 22.6423 23.494 22.4456L24.3905 21.1426L23.1467 19.8476C22.4417 19.1126 22.7937 17.8236 23.7475 17.6166L29.9564 16.2706L30.0784 16.2446C30.1648 16.2256 30.2145 16.2146 30.2258 16.2136C30.5206 16.0676 31.2303 15.6226 31.2303 14.7076C31.2303 13.9736 31.786 13.3806 32.4657 13.3976C33.134 13.4136 33.656 14.0596 33.6447 14.7856C33.6391 15.3406 33.5279 15.8886 33.318 16.3966C34.8229 16.61 36.302 16.9942 37.7301 17.5426L37.073 15.0696C36.9831 14.7376 37.0196 14.3812 37.1745 14.0776C37.3295 13.774 37.5905 13.5477 37.901 13.4476Z" fill="#19B89D"/>
</g>
</g>
</g>
</g>
<defs>
<filter id="filter0_d_7_12" x="0" y="0" width="45.5499" height="48" filterUnits="userSpaceOnUse" color-interpolation-filters="sRGB">
<feFlood flood-opacity="0" result="BackgroundImageFix"/>
<feColorMatrix in="SourceAlpha" type="matrix" values="0 0 0 0 0 0 0 0 0 0 0 0 0 0 0 0 0 0 127 0" result="hardAlpha"/>
<feOffset dy="4"/>
<feGaussianBlur stdDeviation="2"/>
<feComposite in2="hardAlpha" operator="out"/>
<feColorMatrix type="matrix" values="0 0 0 0 0 0 0 0 0 0 0 0 0 0 0 0 0 0 0.25 0"/>
<feBlend mode="normal" in2="BackgroundImageFix" result="effect1_dropShadow_7_12"/>
<feBlend mode="normal" in="SourceGraphic" in2="effect1_dropShadow_7_12" result="shape"/>
</filter>
</defs>
</svg>
